<svg xmlns="http://www.w3.org/2000/svg" width="35" height="35" viewBox="0 0 35 35">
    <g fill="none" fill-rule="evenodd">
        <g>
            <g>
                <g fill="#22334F">
                    <g>
                        <path d="M34.712 17.423c0 9.57-7.786 17.356-17.356 17.356C7.786 34.78 0 26.993 0 17.423 0 7.853 7.786.067 17.356.067c9.57 0 17.356 7.786 17.356 17.356z" transform="translate(-1295 -2186) translate(1295 2186) matrix(-1 0 0 1 35 0) matrix(-1 0 0 1 35 0)"/>
                    </g>
                </g>
                <g fill="#FFF" fill-rule="nonzero">
                    <path d="M.3.3c.38-.38.984-.4 1.387-.06l.065.06 13.796 13.797c.401.4.401 1.05 0 1.451-.38.38-.983.4-1.386.06l-.065-.06L.3 1.752C-.1 1.352-.1.702.3.301z" transform="translate(-1295 -2186) translate(1295 2186) translate(10.182 9.545)"/>
                    <path d="M.3.3c.38-.38.984-.4 1.387-.06l.065.06 13.796 13.797c.401.4.401 1.05 0 1.451-.38.38-.983.4-1.386.06l-.065-.06L.3 1.752C-.1 1.352-.1.702.3.301z" transform="translate(-1295 -2186) translate(1295 2186) translate(10.182 9.545) matrix(-1 0 0 1 15.849 0)"/>
                </g>
            </g>
        </g>
    </g>
</svg>
