<svg xmlns="http://www.w3.org/2000/svg" width="56" height="56" viewBox="0 0 56 56">
    <g fill="none" fill-rule="evenodd">
        <g>
            <g>
                <g fill="#22334F">
                    <path d="M54.548 28.38c0 15.038-12.235 27.273-27.274 27.273C12.235 55.653 0 43.418 0 28.38 0 13.341 12.235 1.105 27.274 1.105c15.039 0 27.274 12.236 27.274 27.274z" transform="translate(-76 -205) translate(76 205) matrix(-1 0 0 1 56 0)"/>
                </g>
                <path fill="#FFF" fill-rule="nonzero" stroke="#FFF" d="M33.24 26.962c.011-.023.025-.045.035-.069.01-.026.016-.052.024-.079.007-.024.016-.047.02-.072.006-.026.007-.053.01-.08.002-.025.006-.05.006-.076 0-.026-.004-.051-.006-.077-.003-.026-.004-.053-.01-.08-.004-.024-.012-.047-.02-.071-.008-.027-.014-.054-.024-.08-.01-.023-.023-.045-.035-.068-.013-.024-.025-.05-.04-.073-.015-.022-.034-.043-.051-.064-.015-.019-.027-.039-.044-.056L23.18 15.803c-.315-.323-.832-.331-1.155-.016-.324.314-.332.831-.017 1.155l9.37 9.644-9.37 9.644c-.315.323-.307.84.017 1.155.158.154.364.231.569.231.212 0 .425-.083.586-.247l9.924-10.214c.017-.018.03-.037.044-.056.017-.021.036-.042.05-.064.016-.024.028-.049.04-.073z" transform="translate(-76 -205) translate(76 205) matrix(-1 0 0 1 55.113 0)"/>
            </g>
        </g>
    </g>
</svg>
