<svg xmlns="http://www.w3.org/2000/svg" width="52" height="37" viewBox="0 0 52 37">
    <g fill="none" fill-rule="evenodd">
        <g fill="#2A4C7C" fill-rule="nonzero">
            <g>
                <path d="M45.198 22.925c-.53 0-1.383.14-1.878.255-.945.107-1.41-.723-1.41-.723s.75-1.685.47-3.847-2.827-7.303-4.711-9.109c-1.885-1.806-2.74-1.836-1.963-3.062.777-1.226 1.616-2.198.864-3.063-.753-.864-.838-1.035-1.806-1.334-.968-.3-.94-.673-.864-1.257.075-.584.12-.785-.707-.785s-.944.036-1.178 1.02c-.233.985-.436 1.196.629 1.728.518.536.518.536.235 1.178-.283.643-1.116 1.235-1.02 1.806.095.57 3.219 11.621 3.219 11.621s1.913 6.916-.864 8.873c-.973 1.037-10.198 1.555-10.993-1.492-.795-3.046-.036-3.926.818-5.381.854-1.456 1.654-3.683 1.31-5.059-.344-1.375-1.167-2.734-3.839-2.301-2.672.432-9.999-3.332-14.24-.78-4.243 2.552-3.287 6.225-3.287 6.225s-3.531 2.22-2.041 1.8c1.49-.42 3.22.47 3.22.47s.556 1.246 1.021 1.987c-1.965.178-3.905 1.304-4.81 2.684C.47 25.76 0 27.377 0 28.466c0 3.756 3.045 6.801 6.802 6.801 3.11 0 5.726-2.09 6.537-4.94.844.478 2.427 1.272 3.208 1.003 1.093-.376 1.41-1.133 1.41-1.133s-.66-1.169 1.902-.107c2.563 1.063 5.872 1.321 8.523 1.287 2.651-.035 5.287-.397 7.357-1.166 2.07-.769 2.578-1.606 2.578-1.606s-.032.53.088 1.293c.092 3.676 3.095 6.63 6.793 6.63 3.757 0 6.802-3.045 6.802-6.801 0-3.757-3.045-6.802-6.802-6.802z" transform="translate(-497 -143) translate(497 143)"/>
            </g>
        </g>
    </g>
</svg>
