<svg width="52" height="37" viewBox="0 0 52 37" fill="none" xmlns="http://www.w3.org/2000/svg">
<path fill-rule="evenodd" clip-rule="evenodd" d="M4.56105 16.7638L4.91776 24.1485L4 24.2952V26.3979L5.01961 26.5446L4.96875 26.5934L6.39633 28.256H7.87472C8.23143 25.9579 10.169 24.3928 12.5653 24.3928C14.9617 24.3928 16.8989 25.9575 17.256 28.256H37.2421L38.2109 27.9135H39.5876C39.4855 28.256 39.4347 28.5494 39.4347 28.9407C39.4347 31.1904 41.3718 32.9509 43.7173 32.9509C46.1136 32.9509 48 31.0928 48 28.8431C48 27.0826 46.8787 25.6154 45.247 25.0286L48 24.9307L45.8078 22.8768L47.3883 23.1214V21.4096L45.349 21.9963V22.4363L41.2193 21.9472L42.6469 19.4532V17.6438L36.4779 7.08066L37.2425 6.6406L27.4534 4.68463L7.3653 4L4.81604 6.59189L4.56105 16.7638ZM45.6548 28.8921C45.6548 29.9193 44.7881 30.7993 43.6664 30.7993C42.5955 30.7993 41.678 29.9189 41.678 28.8921C41.678 27.865 42.5447 26.9849 43.6664 26.9849C44.7373 26.9849 45.6548 27.8162 45.6548 28.8921ZM41.0151 16.1772H38.415L35.6616 7.37452H36.0187L41.0151 16.1772ZM27.7082 20.872L27.0453 20.4808L27.0453 6.39704L34.7951 7.13046L36.5285 16.8134L35.4068 25.3715L34.2343 26.4962L27.7082 26.6917V20.872ZM18.2246 24.051V21.2633L11.2906 16.813L12.3615 7.37456L13.5341 6.68992L26.3823 6.39656V20.4808L25.3627 20.7254V26.9359L19.805 26.9362L18.2246 24.051ZM16.8477 28.8923C16.8477 26.5939 14.9105 24.7845 12.565 24.7845C10.2199 24.7845 8.28235 26.6429 8.28235 28.8923C8.28235 31.1908 10.2195 33.0001 12.565 33.0001C14.9613 33.0001 16.8477 31.1421 16.8477 28.8923ZM14.5534 28.8927C14.5534 29.9198 13.6867 30.7999 12.565 30.7999C11.4433 30.7999 10.5257 29.9195 10.5766 28.8927C10.5766 27.8655 11.4433 26.9854 12.565 26.9854C13.6359 26.9854 14.5534 27.8168 14.5534 28.8927Z" fill="black"/>
</svg>
