<svg width="52" height="37" viewBox="0 0 52 37" fill="none" xmlns="http://www.w3.org/2000/svg">
<path fill-rule="evenodd" clip-rule="evenodd" d="M47.439 16.7638L47.0822 24.1485L48 24.2952V26.3979L46.9804 26.5446L47.0312 26.5934L45.6037 28.256H44.1253C43.7686 25.9579 41.831 24.3928 39.4347 24.3928C37.0383 24.3928 35.1011 25.9575 34.744 28.256H14.7579L13.7891 27.9135H12.4124C12.5145 28.256 12.5653 28.5494 12.5653 28.9407C12.5653 31.1904 10.6282 32.9509 8.28266 32.9509C5.88636 32.9509 4 31.0928 4 28.8431C4 27.0826 5.12131 25.6154 6.75301 25.0286L4 24.9307L6.19218 22.8768L4.61173 23.1214V21.4096L6.65095 21.9963V22.4363L10.7807 21.9472L9.35307 19.4532V17.6438L15.5221 7.08066L14.7575 6.6406L24.5466 4.68463L44.6347 4L47.184 6.59189L47.439 16.7638ZM6.34517 28.8921C6.34517 29.9193 7.21191 30.7993 8.33359 30.7993C9.40445 30.7993 10.322 29.9189 10.322 28.8921C10.322 27.865 9.45526 26.9849 8.33359 26.9849C7.26272 26.9849 6.34517 27.8162 6.34517 28.8921ZM10.9849 16.1772H13.585L16.3384 7.37452H15.9813L10.9849 16.1772ZM24.2918 20.872L24.9547 20.4808L24.9547 6.39704L17.2049 7.13046L15.4715 16.8134L16.5932 25.3715L17.7657 26.4962L24.2918 26.6917V20.872ZM33.7754 24.051V21.2633L40.7094 16.813L39.6385 7.37456L38.4659 6.68992L25.6177 6.39656V20.4808L26.6373 20.7254V26.9359L32.195 26.9362L33.7754 24.051ZM35.1523 28.8923C35.1523 26.5939 37.0895 24.7845 39.435 24.7845C41.7801 24.7845 43.7177 26.6429 43.7177 28.8923C43.7177 31.1908 41.7805 33.0001 39.435 33.0001C37.0387 33.0001 35.1523 31.1421 35.1523 28.8923ZM37.4466 28.8927C37.4466 29.9198 38.3133 30.7999 39.435 30.7999C40.5567 30.7999 41.4743 29.9195 41.4234 28.8927C41.4234 27.8655 40.5567 26.9854 39.435 26.9854C38.3641 26.9854 37.4466 27.8168 37.4466 28.8927Z" fill="black"/>
</svg>
