<svg width="66" height="66" xmlns="http://www.w3.org/2000/svg">
    <g fill="none" fill-rule="evenodd">
        <path d="M1 1h64v64H1z" fill="#FFF" stroke="#EB5757"/>
        <g fill="#000" fill-rule="nonzero" stroke="#22334F">
            <path d="M32 20.324c.215 0 .359.144.359.36v18.648l6.067-5.76a.346.346 0 0 1 .502 0 .349.349 0 0 1 0 .504l-6.677 6.336a.346.346 0 0 1-.502 0l-6.677-6.624a.349.349 0 0 1 0-.504.387.387 0 0 1 .251-.108c.108 0 .18.036.251.108l6.067 6.012V20.684c0-.216.144-.36.359-.36z"/>
            <path d="M18.359 36.848c.215 0 .359.144.359.36v7.632c0 .792.646 1.44 1.436 1.44h23.692c.79 0 1.436-.648 1.436-1.44v-7.668c0-.216.144-.36.359-.36s.359.144.359.36v7.668c0 1.188-.97 2.16-2.154 2.16H20.154A2.163 2.163 0 0 1 18 44.84v-7.668c0-.18.144-.324.359-.324z"/>
        </g>
    </g>
</svg>
