<svg xmlns="http://www.w3.org/2000/svg" width="71" height="49" viewBox="0 0 71 49">
    <g fill="none" fill-rule="evenodd">
        <g>
            <g>
                <g>
                    <g fill="#FF585D" fill-rule="nonzero">
                        <g>
                            <path d="M59.053 19.17c.367-.01.728-.094 1.062-.249.385-.173.747-.396 1.075-.664.319-.25.603-.543.844-.871.226-.313.34-.617.339-.912 0-.414-.077-.756-.23-1.023-.155-.268-.327-.4-.545-.4-.347-.01-.69.064-1.003.216-.268.143-.504.34-.694.578-.189.243-.34.514-.45.802-.108.293-.194.593-.257.9-.053.292-.09.587-.11.884-.02.29-.03.536-.03.738m1.809 6.502c-.852 0-1.6-.157-2.244-.47-.615-.298-1.159-.727-1.592-1.258-.433-.547-.76-1.171-.967-1.84-.21-.713-.316-1.453-.313-2.197.004-.549.055-1.096.153-1.635.1-.58.25-1.148.45-1.7.206-.55.466-1.078.775-1.576.295-.491.657-.938 1.075-1.328.408-.381.877-.69 1.387-.912.541-.235 1.125-.353 1.714-.345.483-.005.963.08 1.416.249.42.156.803.396 1.129.705.329.298.59.666.761 1.078.187.45.28.935.273 1.423-.006.597-.15 1.185-.422 1.715-.291.598-.677 1.145-1.143 1.618-.52.53-1.11.986-1.753 1.354-.688.403-1.424.714-2.191.926.116.217.248.425.395.622.117.148.254.279.407.388.129.088.272.154.423.193.16.038.324.057.489.056.586-.008 1.167-.12 1.714-.333.613-.223 1.205-.5 1.769-.829.562-.325 1.103-.685 1.62-1.078.45-.348.882-.722 1.29-1.12l1.756 1.851c-.778.82-1.63 1.566-2.545 2.226-.39.276-.811.548-1.265.815-.455.274-.927.515-1.415.723-.499.206-1.013.373-1.538.498-.527.12-1.065.18-1.605.18m-12.53-6.501c.366-.01.728-.094 1.06-.249.387-.172.748-.396 1.076-.664.318-.25.601-.543.841-.87.227-.313.34-.617.34-.912 0-.414-.077-.756-.23-1.023-.155-.268-.328-.4-.545-.4-.348-.01-.694.063-1.007.216-.268.144-.504.34-.694.578-.189.243-.34.513-.448.802-.109.293-.195.593-.259.9-.053.292-.09.587-.109.884-.018.286-.028.53-.028.732m1.81 6.501c-.852 0-1.6-.156-2.245-.47-.615-.297-1.158-.727-1.591-1.258-.434-.546-.761-1.17-.966-1.839-.21-.713-.316-1.454-.314-2.198.003-.547.053-1.093.15-1.631.1-.58.25-1.148.449-1.7.207-.55.467-1.077.776-1.576.295-.491.657-.938 1.075-1.328.408-.381.877-.69 1.387-.912.541-.235 1.126-.353 1.715-.345.483-.005.962.08 1.415.249.42.156.804.396 1.129.705.33.299.59.667.762 1.078.187.45.28.935.272 1.423-.006.597-.15 1.185-.421 1.715-.293.599-.68 1.145-1.147 1.618-.52.53-1.11.986-1.754 1.354-.688.403-1.424.714-2.191.926.116.217.247.425.394.622.117.148.255.28.408.388.129.088.271.154.422.193.16.038.325.057.49.056.586-.008 1.167-.12 1.714-.333.613-.223 1.205-.5 1.769-.829.561-.325 1.102-.685 1.619-1.078.451-.348.882-.722 1.29-1.12l1.763 1.854c-.776.82-1.627 1.567-2.541 2.227-.39.277-.812.549-1.266.816-.454.273-.927.515-1.415.722-.5.206-1.015.372-1.54.497-.527.12-1.065.18-1.605.18M41.819 4.474c-.526 1.328-.938 2.498-1.238 3.511-.3 1.005-.526 1.899-.68 2.683-.154.784-.263 1.475-.327 2.073-.063.59-.126 1.138-.19 1.645.553-1.06 1.11-2.1 1.673-3.124.562-1.032 1.07-1.986 1.524-2.862.454-.884.822-1.663 1.102-2.336.29-.674.436-1.185.436-1.534 0-.489-.068-.844-.205-1.065-.136-.23-.322-.345-.558-.346-.417 0-.734.116-.952.346-.218.221-.413.558-.585 1.012m-3.306 15.08c-.036 0-.077.106-.122.318-.048.203-.093.47-.137.801-.036.323-.072.688-.109 1.093-.037.405-.068.805-.095 1.202-.026.386-.049.75-.068 1.093-.018.33-.027.594-.027.788 0 1.354.023 2.433.068 3.234.055.802.118 1.41.19 1.826.082.414.168.681.26.8.1.131.2.196.299.196.309 0 .554-.144.734-.43.21-.332.353-.703.422-1.091.106-.473.17-.954.191-1.438.036-.516.054-1.014.054-1.493-.004-.398-.032-.795-.081-1.189-.046-.47-.114-.959-.204-1.466-.081-.516-.18-1.028-.3-1.534-.108-.506-.226-.958-.353-1.355-.093-.339-.216-.668-.368-.984-.127-.249-.245-.373-.354-.373m-3.633 6.637c0-.045.01-.327.028-.843.019-.515.072-1.203.136-2.06.063-.855.15-1.843.258-2.96.108-1.118.25-2.312.422-3.554s.39-2.534.625-3.843c.235-1.31.531-2.6.86-3.843.318-1.19.699-2.363 1.143-3.512.378-1.009.857-1.977 1.428-2.89.536-.83 1.13-1.484 1.782-1.962.62-.47 1.375-.724 2.15-.723.33.004.656.06.967.166.346.114.665.3.935.545.301.277.538.616.695.995.19.405.286.908.286 1.507-.012.634-.099 1.265-.258 1.878-.184.767-.42 1.52-.708 2.253-.298.802-.657 1.636-1.075 2.503-.409.867-.858 1.733-1.347 2.6-.49.858-1.007 1.706-1.551 2.544-.536.83-1.086 1.608-1.649 2.337l-.027.221c.131-.07.268-.13.408-.18.093-.028.19-.042.287-.041.097-.004.194.01.287.04.066.018.13.042.19.073l.191.083c.075.02.153.03.23.028.899 0 1.692-.106 2.382-.318.604-.185 1.187-.43 1.742-.733.527-.285 1.012-.643 1.441-1.065l-.298 3.36c-.595.33-1.225.59-1.878.774-.595.171-1.2.31-1.81.415-.635.1-1.275.165-1.918.193.329.615.624 1.247.884 1.894.245.617.45 1.25.613 1.894.189.684.285 1.391.286 2.102 0 .082-.013.257-.041.525-.028.267-.055.594-.109.981-.053.388-.131.816-.23 1.286-.104.482-.237.958-.396 1.424-.153.476-.345.938-.573 1.383-.213.431-.482.831-.802 1.19-.293.345-.648.63-1.047.842-.412.216-.87.323-1.334.313-.459.011-.912-.109-1.306-.346-.381-.24-.706-.56-.952-.939-.282-.424-.506-.884-.667-1.368-.177-.537-.314-1.087-.408-1.645-.1-.581-.172-1.176-.215-1.784-.036-.6-.054-1.18-.055-1.742M31.97 4.474c-.525 1.328-.938 2.498-1.238 3.511-.3 1.005-.527 1.899-.68 2.683-.154.784-.263 1.475-.327 2.073-.063.59-.127 1.138-.19 1.645.552-1.06 1.11-2.1 1.673-3.124.562-1.032 1.07-1.986 1.524-2.862.453-.884.82-1.663 1.101-2.336.291-.674.437-1.185.436-1.534 0-.489-.068-.844-.204-1.065-.136-.23-.322-.346-.557-.346-.418 0-.735.116-.953.346-.218.221-.412.558-.585 1.012m-3.302 15.08c-.036 0-.078.106-.123.318-.045.211-.09.47-.136.801-.045.332-.072.687-.109 1.093-.037.405-.068.806-.095 1.202-.026.397-.05.752-.068 1.093-.018.34-.028.594-.028.788 0 1.354.023 2.433.068 3.234.055.802.118 1.41.19 1.826.083.414.17.681.26.8.1.13.199.195.299.195.309 0 .553-.144.734-.429.21-.333.353-.704.422-1.092.105-.473.17-.954.191-1.438.036-.516.054-1.014.054-1.493-.005-.397-.033-.794-.083-1.189-.047-.47-.115-.958-.203-1.465-.082-.517-.182-1.029-.3-1.535-.11-.506-.227-.958-.354-1.355-.092-.339-.216-.668-.37-.983-.126-.249-.244-.373-.353-.373M25.03 26.19c0-.045.009-.327.028-.843.018-.516.071-1.203.136-2.06.064-.855.15-1.843.258-2.961.108-1.118.25-2.312.422-3.553.173-1.242.39-2.534.625-3.843.236-1.31.532-2.6.86-3.843.318-1.19.7-2.363 1.143-3.512.378-1.01.856-1.977 1.429-2.89.535-.83 1.128-1.484 1.782-1.963.62-.47 1.374-.723 2.15-.722.328.004.654.06.965.166.347.115.666.3.937.547.301.276.538.616.693.995.191.405.287.908.287 1.507-.012.634-.099 1.265-.258 1.878-.184.767-.421 1.52-.708 2.253-.3.802-.658 1.636-1.075 2.503-.408.867-.857 1.733-1.347 2.6-.49.858-1.007 1.706-1.551 2.544-.536.83-1.085 1.608-1.649 2.337l-.027.221c.131-.07.267-.13.408-.18.093-.028.19-.042.287-.041.097-.004.194.01.286.04.066.018.13.042.19.073l.191.083c.076.02.153.03.231.028.898 0 1.692-.106 2.381-.318.603-.185 1.187-.43 1.742-.733.527-.285 1.013-.644 1.442-1.065l-.3 3.36c-.594.33-1.224.59-1.877.774-.595.171-1.2.31-1.81.415-.635.1-1.275.165-1.917.193.328.615.624 1.247.884 1.894.244.617.449 1.25.612 1.894.19.684.286 1.391.287 2.102 0 .082-.014.257-.041.525-.027.267-.055.594-.108.981-.054.388-.132.816-.232 1.286-.102.482-.234.957-.393 1.423-.153.475-.345.938-.573 1.382-.213.432-.483.833-.803 1.191-.293.346-.649.632-1.048.843-.411.217-.87.326-1.333.318-.46.011-.912-.109-1.307-.346-.38-.24-.706-.56-.952-.939-.28-.424-.505-.884-.667-1.368-.177-.537-.313-1.087-.407-1.645-.1-.581-.172-1.176-.215-1.784-.036-.6-.054-1.18-.055-1.742m-6.924-3.178c.307 0 .607-.157.897-.47.314-.36.57-.765.762-1.203.226-.515.4-1.053.517-1.604.131-.554.199-1.12.2-1.69.004-.394-.028-.788-.094-1.176-.052-.33-.149-.65-.287-.954-.112-.247-.28-.465-.49-.636-.206-.159-.46-.241-.72-.234-.373 0-.727.16-1.062.483-.363.36-.662.781-.884 1.244-.265.528-.466 1.085-.6 1.661-.14.575-.211 1.165-.214 1.757-.002.366.034.733.109 1.092.063.316.178.62.34.898.154.248.363.457.612.609.28.153.594.23.912.22m4.204-7.7c.265.54.461 1.111.585 1.7.132.557.2 1.128.204 1.7-.001.554-.062 1.106-.179 1.647-.117.551-.29 1.089-.517 1.604-.216.514-.49 1-.816 1.451-.31.444-.68.84-1.102 1.176-.406.33-.86.596-1.347.788-.498.194-1.03.292-1.564.289-.799 0-1.483-.176-2.055-.526-.56-.356-1.033-.833-1.387-1.397-.374-.595-.645-1.25-.803-1.936-.163-.717-.245-1.45-.245-2.184-.008-.963.144-1.921.45-2.834.274-.841.708-1.62 1.278-2.295.565-.657 1.267-1.18 2.054-1.534.807-.379 1.715-.568 2.724-.567.825-.007 1.645.134 2.421.414.75.266 1.46.633 2.11 1.093.665.453 1.28.977 1.836 1.561.563.58 1.094 1.19 1.592 1.826l-.258 1.95c-.298-.389-.63-.75-.993-1.078-.417-.385-.862-.763-1.334-1.134-.462-.368-.92-.714-1.374-1.036-.453-.332-.843-.61-1.17-.83l-.11.152zM10.011 5.07c-.001-.111-.01-.222-.028-.332-.007-.124-.035-.246-.081-.36-.045-.111-.12-.207-.215-.278-.116-.08-.255-.12-.395-.11-.235 0-.476.212-.721.636-.278.522-.51 1.068-.694 1.63-.218.655-.426 1.379-.626 2.172-.19.792-.368 1.561-.53 2.308l.408.055c.136.01.276.023.422.042.272-.47.553-.976.843-1.52.3-.554.567-1.093.803-1.618.236-.536.431-1.033.585-1.493.154-.46.23-.838.231-1.134m4.354 17.502c-.873.518-1.649.97-2.327 1.357-.678.386-1.285.709-1.822.967-.457.228-.93.422-1.415.578-.36.12-.737.186-1.117.193-.662.01-1.307-.215-1.822-.635-.526-.424-.966-1.033-1.32-1.826-.355-.802-.622-1.77-.803-2.903-.182-1.268-.268-2.548-.259-3.829 0-.552.024-1.142.072-1.769.048-.626.111-1.248.19-1.866-.272-.037-.485-.072-.64-.097-.153-.025-.302-.072-.476-.097-.173-.024-.375-.072-.64-.11-.263-.039-.626-.083-1.114-.138-.176-.015-.347-.067-.502-.153-.106-.07-.195-.165-.259-.276-.052-.103-.084-.216-.095-.332C0 11.515 0 11.414 0 11.332c-.002-.182.106-.346.272-.415.212-.114.442-.19.68-.222.298-.047.598-.07.9-.068.334-.01.652-.01.95 0 .3.01.581.018.817.028.168.004.336-.005.502-.028.238-1.221.547-2.427.924-3.612.339-1.068.76-2.107 1.262-3.108.472-.912.985-1.64 1.537-2.183.553-.554 1.134-.83 1.741-.83.38-.004.751.112 1.062.332.336.231.619.533.83.884.24.403.415.842.517 1.3.128.501.192 1.017.19 1.535-.004.485-.068.968-.19 1.438-.136.523-.309 1.036-.517 1.534-.23.54-.488 1.066-.776 1.576-.29.535-.598 1.065-.925 1.59.082.01.215.018.408.028.193.01.408.004.653.013.246.01.527.024.816.042l.844.027.762.028c.236.01.431.019.585.028.175.004.33.113.395.276.088.21.13.436.122.664.013.288-.085.57-.272.788-.182.203-.381.304-.6.304H8.27c-.263.369-.53.733-.803 1.092-.263.351-.508.668-.734.954-.037.571-.069 1.133-.096 1.686l-.027.747c-.008.258-.018.498-.027.746l-.027.723v.635c-.009.424.037.847.136 1.258.073.305.208.592.394.844.166.207.381.369.626.47.27.095.556.142.843.138.242-.01.48-.056.708-.138.32-.105.634-.23.94-.373.344-.166.702-.358 1.074-.578.38-.221.753-.46 1.114-.723.373-.267.727-.543 1.063-.829.32-.28.625-.581.911-.899l.003 3.535z" transform="translate(-120 -2129) translate(0 2102) translate(120 27) translate(1 6.162)"/>
                        </g>
                    </g>
                </g>
            </g>
        </g>
    </g>
</svg>
