<svg xmlns="http://www.w3.org/2000/svg" width="138" height="68" viewBox="0 0 138 68">
    <defs>
        <filter id="htotktaiba">
            <feColorMatrix in="SourceGraphic" values="0 0 0 0 1.000000 0 0 0 0 1.000000 0 0 0 0 1.000000 0 0 0 1.000000 0"/>
        </filter>
    </defs>
    <g fill="none" fill-rule="evenodd">
        <g>
            <g filter="url(#htotktaiba)" transform="translate(-560 -48) translate(560 48)">
                <g fill="#FFF" fill-rule="nonzero">
                    <path d="M117.708 38.217c.732-.018 1.452-.187 2.116-.496.769-.344 1.49-.789 2.143-1.323.636-.5 1.202-1.084 1.682-1.737.452-.623.677-1.23.676-1.819 0-.825-.153-1.506-.46-2.04-.307-.532-.65-.797-1.084-.797-.692-.02-1.377.129-2 .432-.534.285-1.005.677-1.383 1.152-.376.485-.678 1.024-.896 1.599-.215.584-.387 1.183-.514 1.793-.106.583-.178 1.171-.217 1.762-.042.58-.063 1.07-.063 1.474m3.607 12.96c-1.699 0-3.19-.312-4.472-.937-1.227-.593-2.31-1.448-3.175-2.507-.862-1.09-1.515-2.334-1.925-3.667-.42-1.422-.63-2.898-.625-4.382.008-1.093.11-2.183.305-3.259.199-1.154.499-2.289.897-3.39.411-1.096.928-2.148 1.544-3.14.588-.98 1.31-1.87 2.143-2.648.813-.76 1.748-1.375 2.765-1.819 1.079-.468 2.243-.703 3.417-.688.963-.009 1.92.16 2.822.497.836.31 1.601.789 2.25 1.405.656.595 1.175 1.329 1.518 2.149.373.898.558 1.865.543 2.839-.012 1.19-.3 2.36-.841 3.418-.58 1.193-1.35 2.282-2.278 3.225-1.036 1.057-2.213 1.966-3.495 2.7-1.37.804-2.838 1.424-4.367 1.846.231.433.494.847.787 1.24.234.295.507.556.813.774.256.176.541.306.841.384.32.076.648.113.976.111 1.169-.016 2.326-.24 3.417-.662 1.221-.446 2.4-1 3.525-1.654 1.12-.647 2.198-1.365 3.229-2.148.9-.694 1.758-1.44 2.571-2.234l3.5 3.691c-1.55 1.635-3.247 3.12-5.071 4.437-.777.551-1.618 1.093-2.523 1.626-.906.545-1.848 1.026-2.82 1.44-.994.411-2.02.744-3.065.994-1.05.24-2.124.36-3.2.358m-24.976-12.96c.731-.019 1.451-.187 2.116-.496.769-.344 1.489-.79 2.142-1.324.635-.499 1.199-1.083 1.677-1.735.452-.623.678-1.23.678-1.819 0-.825-.153-1.506-.46-2.04-.308-.532-.652-.797-1.085-.797-.694-.02-1.383.128-2.008.432-.534.286-1.004.678-1.383 1.152-.376.485-.677 1.024-.893 1.599-.216.584-.388 1.183-.515 1.793-.106.583-.179 1.171-.218 1.762-.037.57-.055 1.057-.055 1.46m3.608 12.962c-1.7 0-3.192-.313-4.475-.938-1.226-.593-2.31-1.448-3.173-2.507-.864-1.09-1.517-2.334-1.926-3.666-.42-1.423-.63-2.9-.624-4.383.006-1.09.106-2.178.299-3.252.198-1.154.497-2.289.894-3.39.413-1.095.931-2.147 1.547-3.14.588-.98 1.309-1.87 2.143-2.648.812-.76 1.748-1.375 2.765-1.818 1.079-.47 2.243-.704 3.417-.689.963-.009 1.919.16 2.822.497.836.311 1.601.79 2.25 1.406.656.595 1.174 1.329 1.518 2.148.373.899.557 1.865.543 2.839-.013 1.19-.3 2.36-.84 3.419-.584 1.192-1.356 2.281-2.286 3.224-1.037 1.058-2.213 1.967-3.497 2.7-1.37.803-2.838 1.424-4.367 1.847.231.432.494.847.786 1.24.233.295.508.555.814.773.256.176.54.306.84.384.32.076.648.113.977.111 1.17-.015 2.326-.24 3.417-.662 1.221-.446 2.401-1 3.526-1.653 1.119-.648 2.197-1.366 3.227-2.15.899-.693 1.757-1.439 2.571-2.233l3.514 3.697c-1.547 1.636-3.243 3.123-5.065 4.44-.776.551-1.617 1.093-2.523 1.626-.906.545-1.848 1.027-2.82 1.44-.996.41-2.023.742-3.071.99-1.05.24-2.123.36-3.199.36M83.356 8.92c-1.048 2.646-1.87 4.98-2.467 7-.597 2.002-1.05 3.785-1.356 5.348-.307 1.563-.524 2.94-.651 4.133-.126 1.176-.253 2.27-.38 3.28 1.102-2.113 2.214-4.189 3.335-6.228 1.121-2.057 2.134-3.96 3.039-5.706.904-1.763 1.636-3.316 2.195-4.657.58-1.344.869-2.364.869-3.059 0-.974-.136-1.682-.407-2.123-.272-.459-.643-.689-1.113-.69-.832 0-1.464.23-1.899.69-.434.441-.822 1.113-1.165 2.016m-6.59 30.065c-.072 0-.153.21-.243.633-.095.405-.186.938-.273 1.599-.071.644-.143 1.37-.217 2.177-.073.808-.136 1.607-.19 2.398-.052.768-.097 1.494-.135 2.178-.036.66-.053 1.184-.053 1.57 0 2.701.045 4.851.135 6.45.109 1.598.235 2.811.379 3.639.163.825.335 1.358.516 1.597.2.26.399.389.597.389.615 0 1.104-.288 1.464-.856.417-.664.703-1.403.841-2.177.21-.942.338-1.901.38-2.866.073-1.03.109-2.021.109-2.977-.01-.792-.064-1.584-.163-2.37-.09-.937-.226-1.911-.407-2.922-.161-1.03-.36-2.05-.596-3.06-.217-1.008-.452-1.909-.704-2.7-.185-.676-.43-1.332-.734-1.962-.254-.497-.489-.745-.706-.745m-7.241 13.234c0-.091.019-.653.056-1.681.037-1.028.143-2.4.27-4.106.127-1.706.298-3.676.514-5.904.216-2.228.499-4.609.841-7.084.343-2.476.779-5.052 1.247-7.662.469-2.61 1.059-5.184 1.715-7.661.632-2.374 1.392-4.71 2.277-7 .754-2.013 1.708-3.943 2.847-5.761 1.067-1.656 2.251-2.961 3.552-3.915C84.08.508 85.584.003 87.13.004c.656.007 1.306.12 1.927.332.69.227 1.325.596 1.864 1.085.6.552 1.072 1.23 1.384 1.985.381.807.572 1.809.572 3.004-.025 1.264-.198 2.521-.516 3.744-.367 1.529-.838 3.03-1.411 4.492-.595 1.599-1.309 3.262-2.143 4.989-.814 1.728-1.71 3.456-2.684 5.184-.977 1.71-2.008 3.4-3.093 5.072-1.068 1.654-2.163 3.206-3.286 4.658l-.054.442c.262-.141.534-.262.814-.36.186-.056.378-.083.572-.082.194-.007.387.02.571.082.132.033.26.082.38.144l.38.165c.15.04.305.059.46.057 1.79 0 3.372-.212 4.747-.636 1.203-.369 2.365-.858 3.471-1.46 1.052-.568 2.019-1.283 2.873-2.123l-.594 6.698c-1.185.657-2.44 1.175-3.743 1.543-1.186.341-2.39.618-3.607.828-1.267.2-2.543.327-3.824.384.655 1.226 1.244 2.486 1.763 3.776.487 1.231.895 2.492 1.22 3.776.378 1.364.57 2.774.571 4.19 0 .164-.027.514-.083 1.047-.055.533-.108 1.185-.215 1.957-.108.772-.263 1.626-.46 2.563-.208.961-.471 1.909-.789 2.839-.305.949-.687 1.87-1.143 2.756-.423.86-.96 1.658-1.597 2.372-.584.689-1.293 1.26-2.088 1.68-.82.43-1.735.644-2.659.624-.914.022-1.817-.217-2.602-.69-.761-.477-1.409-1.116-1.899-1.872-.561-.845-1.009-1.763-1.33-2.727-.352-1.071-.624-2.167-.813-3.28-.199-1.158-.341-2.344-.428-3.557-.072-1.194-.108-2.351-.109-3.472M63.722 8.92c-1.047 2.646-1.87 4.98-2.468 7-.597 2.002-1.049 3.785-1.356 5.348-.306 1.563-.523 2.94-.65 4.133-.126 1.176-.253 2.27-.38 3.28 1.101-2.113 2.213-4.189 3.335-6.228 1.121-2.057 2.134-3.96 3.038-5.706.904-1.763 1.636-3.316 2.196-4.657.58-1.344.869-2.364.868-3.059 0-.974-.136-1.682-.407-2.123-.27-.46-.641-.69-1.11-.69-.832 0-1.466.23-1.9.69-.433.441-.822 1.113-1.166 2.016M57.14 38.99c-.071 0-.154.211-.244.633-.09.422-.182.938-.272 1.599-.09.66-.143 1.37-.217 2.177-.074.808-.136 1.607-.188 2.398-.053.79-.1 1.498-.136 2.178-.036.68-.056 1.185-.056 1.57 0 2.701.045 4.851.136 6.45.108 1.598.235 2.811.378 3.639.165.825.338 1.358.518 1.597.198.258.396.387.595.387.616 0 1.103-.288 1.464-.855.418-.664.704-1.404.842-2.178.21-.942.337-1.9.38-2.865.071-1.03.107-2.022.107-2.977-.01-.793-.065-1.584-.164-2.37-.096-.938-.23-1.912-.406-2.923-.164-1.03-.363-2.05-.599-3.058-.217-1.01-.451-1.91-.704-2.702-.184-.675-.43-1.332-.737-1.96-.252-.497-.487-.745-.704-.745m-7.241 13.23c0-.091.017-.653.054-1.681.037-1.029.143-2.4.271-4.106.129-1.707.299-3.677.515-5.905.215-2.228.497-4.608.841-7.084.344-2.475.777-5.052 1.247-7.661.47-2.61 1.059-5.185 1.714-7.662.634-2.373 1.394-4.71 2.277-7 .754-2.013 1.708-3.943 2.849-5.76 1.065-1.657 2.25-2.961 3.551-3.915C64.447.504 65.951-.002 67.497 0c.654.007 1.304.119 1.924.331.691.229 1.327.6 1.868 1.09.6.552 1.071 1.23 1.382 1.985.38.807.571 1.809.571 3.004-.024 1.264-.197 2.521-.514 3.744-.368 1.529-.84 3.03-1.412 4.492-.596 1.599-1.31 3.262-2.142 4.989-.814 1.728-1.709 3.456-2.686 5.184-.976 1.71-2.007 3.4-3.091 5.072-1.068 1.654-2.163 3.206-3.286 4.658l-.054.442c.261-.141.533-.262.813-.36.185-.056.378-.083.571-.082.194-.007.387.02.572.082.131.033.259.082.38.144l.38.165c.15.04.304.06.46.057 1.79 0 3.372-.212 4.745-.636 1.203-.368 2.365-.857 3.471-1.46 1.052-.569 2.02-1.283 2.876-2.123l-.597 6.698c-1.185.658-2.44 1.176-3.743 1.543-1.186.342-2.39.618-3.607.828-1.266.2-2.542.327-3.823.384.656 1.226 1.244 2.486 1.763 3.776.488 1.231.895 2.492 1.22 3.776.378 1.364.57 2.774.571 4.19 0 .164-.027.514-.08 1.047-.055.533-.11 1.185-.217 1.957s-.262 1.626-.461 2.563c-.204.96-.466 1.907-.783 2.836-.306.948-.688 1.87-1.143 2.756-.425.861-.963 1.66-1.601 2.375-.584.689-1.293 1.26-2.088 1.68-.82.433-1.733.65-2.657.634-.916.022-1.818-.217-2.605-.69-.76-.478-1.407-1.116-1.898-1.872-.56-.846-1.007-1.763-1.329-2.727-.353-1.07-.625-2.167-.812-3.28-.2-1.158-.343-2.344-.429-3.556-.071-1.195-.108-2.352-.109-3.473m-13.802-6.336c.613 0 1.212-.313 1.789-.938.625-.716 1.137-1.525 1.518-2.398.451-1.027.796-2.098 1.03-3.197.262-1.104.397-2.234.402-3.37.005-.785-.059-1.57-.19-2.344-.104-.657-.296-1.297-.572-1.901-.222-.494-.556-.928-.975-1.269-.413-.316-.92-.48-1.437-.466-.743 0-1.448.32-2.116.963-.724.72-1.32 1.558-1.763 2.48-.528 1.052-.929 2.164-1.194 3.312-.279 1.146-.423 2.321-.429 3.501-.003.732.07 1.462.218 2.178.126.63.355 1.235.678 1.79.307.495.725.911 1.22 1.214.557.306 1.184.458 1.819.44m8.38-15.351c.526 1.076.918 2.214 1.165 3.388.263 1.111.4 2.248.407 3.39-.004 1.105-.124 2.205-.357 3.284-.234 1.098-.58 2.17-1.03 3.197-.431 1.024-.977 1.994-1.627 2.893-.617.884-1.357 1.673-2.197 2.343-.81.66-1.715 1.19-2.684 1.571-.995.389-2.053.584-3.119.577-1.591 0-2.956-.35-4.095-1.049-1.116-.71-2.06-1.66-2.766-2.784-.745-1.187-1.285-2.492-1.6-3.86-.325-1.429-.489-2.89-.488-4.354-.017-1.92.286-3.83.895-5.65.548-1.677 1.413-3.23 2.549-4.575 1.127-1.31 2.525-2.353 4.095-3.059 1.609-.755 3.418-1.131 5.428-1.13 1.645-.013 3.28.267 4.827.826 1.494.529 2.908 1.262 4.204 2.178 1.327.904 2.554 1.948 3.662 3.113 1.12 1.156 2.18 2.37 3.172 3.64l-.514 3.888c-.593-.776-1.256-1.496-1.98-2.15-.831-.768-1.717-1.522-2.658-2.26-.922-.734-1.835-1.423-2.74-2.066-.903-.663-1.68-1.214-2.33-1.655l-.22.304zm-24.52-20.426c-.001-.221-.02-.442-.054-.66-.015-.248-.07-.491-.163-.72-.09-.221-.238-.412-.428-.552-.23-.162-.508-.24-.787-.22-.469 0-.948.422-1.437 1.268-.554 1.04-1.017 2.129-1.383 3.25-.435 1.305-.85 2.748-1.247 4.33-.381 1.578-.734 3.112-1.057 4.6l.814.11c.27.02.55.046.84.084.542-.936 1.102-1.947 1.68-3.032.598-1.103 1.132-2.178 1.601-3.224.47-1.068.859-2.06 1.166-2.977.306-.917.46-1.67.461-2.26m8.678 34.892c-1.74 1.032-3.287 1.934-4.638 2.704-1.352.771-2.562 1.414-3.633 1.929-.91.455-1.852.84-2.82 1.152-.718.241-1.468.371-2.225.386-1.32.019-2.606-.43-3.633-1.267-1.047-.845-1.924-2.058-2.63-3.64-.707-1.598-1.241-3.527-1.601-5.788-.362-2.527-.534-5.079-.516-7.632 0-1.102.048-2.278.143-3.527.095-1.25.221-2.49.379-3.721-.543-.074-.968-.144-1.275-.193-.307-.05-.604-.144-.95-.193-.345-.05-.748-.144-1.274-.22-.525-.077-1.248-.166-2.223-.276-.35-.03-.69-.133-1-.304-.212-.14-.388-.328-.515-.55-.104-.207-.169-.431-.19-.662C0 22.957 0 22.755 0 22.592c-.004-.362.211-.69.543-.827.422-.229.881-.379 1.356-.442.592-.095 1.191-.141 1.79-.137.668-.019 1.302-.019 1.898 0 .596.018 1.157.036 1.627.056.334.009.669-.01 1-.056.475-2.435 1.09-4.839 1.843-7.2.675-2.13 1.515-4.201 2.514-6.196.942-1.82 1.963-3.27 3.064-4.354 1.103-1.103 2.26-1.655 3.471-1.655.757-.006 1.496.225 2.116.663.67.462 1.234 1.063 1.654 1.763.479.803.827 1.678 1.031 2.592.256.999.383 2.027.379 3.059-.008.968-.136 1.93-.379 2.867-.27 1.043-.615 2.065-1.03 3.059-.457 1.076-.973 2.125-1.547 3.142-.577 1.066-1.191 2.122-1.844 3.168.163.02.429.038.813.057.384.018.814.008 1.303.027.488.019 1.048.046 1.625.084l1.682.053 1.52.056c.47.018.859.036 1.165.055.349.008.658.225.787.551.177.418.26.869.245 1.322.024.575-.17 1.137-.543 1.571-.362.406-.76.608-1.194.607H16.482c-.524.735-1.057 1.461-1.601 2.177-.523.7-1.012 1.332-1.463 1.903-.073 1.138-.137 2.259-.19 3.36-.019.48-.037.976-.054 1.49s-.037.992-.055 1.488c-.017.495-.037.975-.054 1.44v1.267c-.017.844.074 1.687.272 2.507.146.609.414 1.18.785 1.682.331.413.76.736 1.247.938.54.19 1.11.282 1.682.275.481-.018.957-.111 1.411-.275.639-.209 1.264-.457 1.871-.745.688-.329 1.402-.713 2.143-1.152.757-.44 1.5-.917 2.221-1.44.743-.533 1.449-1.084 2.117-1.653.641-.56 1.248-1.158 1.817-1.792l.006 7.047z"/>
                </g>
            </g>
        </g>
    </g>
</svg>
