<svg width="115" height="70" viewBox="0 0 115 70" fill="none" xmlns="http://www.w3.org/2000/svg">
<path d="M2.672 63.864H1.032V62.4H6.2V63.864H4.56V68H2.672V63.864ZM15.1064 66.576V68H10.4504V62.4H15.0024V63.824H12.3064V64.48H14.6744V65.84H12.3064V66.576H15.1064ZM22.4892 68.128C21.8972 68.128 21.3639 68.0053 20.8892 67.76C20.4145 67.5093 20.0412 67.1627 19.7692 66.72C19.5025 66.272 19.3692 65.7653 19.3692 65.2C19.3692 64.6347 19.5025 64.1307 19.7692 63.688C20.0412 63.24 20.4145 62.8933 20.8892 62.648C21.3639 62.3973 21.8972 62.272 22.4892 62.272C23.0332 62.272 23.5185 62.368 23.9452 62.56C24.3719 62.752 24.7239 63.0293 25.0012 63.392L23.8092 64.456C23.4625 64.0187 23.0545 63.8 22.5852 63.8C22.1905 63.8 21.8732 63.928 21.6332 64.184C21.3932 64.4347 21.2732 64.7733 21.2732 65.2C21.2732 65.6267 21.3932 65.968 21.6332 66.224C21.8732 66.4747 22.1905 66.6 22.5852 66.6C23.0545 66.6 23.4625 66.3813 23.8092 65.944L25.0012 67.008C24.7239 67.3707 24.3719 67.648 23.9452 67.84C23.5185 68.032 23.0332 68.128 22.4892 68.128ZM34.8263 62.4V68H32.9383V65.936H31.1943V68H29.3063V62.4H31.1943V64.384H32.9383V62.4H34.8263ZM45.016 62.4V68H43.464L41.336 65.456V68H39.496V62.4H41.048L43.176 64.944V62.4H45.016ZM52.6217 68.128C52.019 68.128 51.4777 68.0027 50.9977 67.752C50.5177 67.5013 50.1417 67.1547 49.8697 66.712C49.5977 66.264 49.4617 65.76 49.4617 65.2C49.4617 64.64 49.5977 64.1387 49.8697 63.696C50.1417 63.248 50.5177 62.8987 50.9977 62.648C51.4777 62.3973 52.019 62.272 52.6217 62.272C53.2244 62.272 53.7657 62.3973 54.2457 62.648C54.7257 62.8987 55.1017 63.248 55.3737 63.696C55.6457 64.1387 55.7817 64.64 55.7817 65.2C55.7817 65.76 55.6457 66.264 55.3737 66.712C55.1017 67.1547 54.7257 67.5013 54.2457 67.752C53.7657 68.0027 53.2244 68.128 52.6217 68.128ZM52.6217 66.6C52.8564 66.6 53.067 66.544 53.2537 66.432C53.4457 66.3147 53.5977 66.152 53.7097 65.944C53.8217 65.7307 53.8777 65.4827 53.8777 65.2C53.8777 64.9173 53.8217 64.672 53.7097 64.464C53.5977 64.2507 53.4457 64.088 53.2537 63.976C53.067 63.8587 52.8564 63.8 52.6217 63.8C52.387 63.8 52.1737 63.8587 51.9817 63.976C51.795 64.088 51.6457 64.2507 51.5337 64.464C51.4217 64.672 51.3657 64.9173 51.3657 65.2C51.3657 65.4827 51.4217 65.7307 51.5337 65.944C51.6457 66.152 51.795 66.3147 51.9817 66.432C52.1737 66.544 52.387 66.6 52.6217 66.6ZM60.2269 62.4H62.1149V66.536H64.6429V68H60.2269V62.4ZM71.7823 68.128C71.1796 68.128 70.6383 68.0027 70.1583 67.752C69.6783 67.5013 69.3023 67.1547 69.0303 66.712C68.7583 66.264 68.6223 65.76 68.6223 65.2C68.6223 64.64 68.7583 64.1387 69.0303 63.696C69.3023 63.248 69.6783 62.8987 70.1583 62.648C70.6383 62.3973 71.1796 62.272 71.7823 62.272C72.385 62.272 72.9263 62.3973 73.4063 62.648C73.8863 62.8987 74.2623 63.248 74.5343 63.696C74.8063 64.1387 74.9423 64.64 74.9423 65.2C74.9423 65.76 74.8063 66.264 74.5343 66.712C74.2623 67.1547 73.8863 67.5013 73.4063 67.752C72.9263 68.0027 72.385 68.128 71.7823 68.128ZM71.7823 66.6C72.017 66.6 72.2276 66.544 72.4143 66.432C72.6063 66.3147 72.7583 66.152 72.8703 65.944C72.9823 65.7307 73.0383 65.4827 73.0383 65.2C73.0383 64.9173 72.9823 64.672 72.8703 64.464C72.7583 64.2507 72.6063 64.088 72.4143 63.976C72.2276 63.8587 72.017 63.8 71.7823 63.8C71.5476 63.8 71.3343 63.8587 71.1423 63.976C70.9556 64.088 70.8063 64.2507 70.6943 64.464C70.5823 64.672 70.5263 64.9173 70.5263 65.2C70.5263 65.4827 70.5823 65.7307 70.6943 65.944C70.8063 66.152 70.9556 66.3147 71.1423 66.432C71.3343 66.544 71.5476 66.6 71.7823 66.6ZM83.0916 65.048H84.7316V67.416C84.4009 67.6453 84.0169 67.8213 83.5796 67.944C83.1422 68.0667 82.7129 68.128 82.2916 68.128C81.6942 68.128 81.1582 68.0053 80.6836 67.76C80.2089 67.5093 79.8356 67.1627 79.5636 66.72C79.2969 66.272 79.1636 65.7653 79.1636 65.2C79.1636 64.6347 79.2969 64.1307 79.5636 63.688C79.8356 63.24 80.2116 62.8933 80.6916 62.648C81.1769 62.3973 81.7236 62.272 82.3316 62.272C82.8809 62.272 83.3716 62.3653 83.8036 62.552C84.2409 62.7333 84.6036 63 84.8916 63.352L83.6836 64.416C83.3316 64.0053 82.9129 63.8 82.4276 63.8C82.0116 63.8 81.6809 63.9253 81.4356 64.176C81.1902 64.4267 81.0676 64.768 81.0676 65.2C81.0676 65.6213 81.1876 65.96 81.4276 66.216C81.6729 66.472 81.9982 66.6 82.4036 66.6C82.6436 66.6 82.8729 66.5547 83.0916 66.464V65.048ZM89.296 62.4H91.184V68H89.296V62.4ZM100.509 66.576V68H95.8529V62.4H100.405V63.824H97.7089V64.48H100.077V65.84H97.7089V66.576H100.509ZM107.084 68.128C106.62 68.128 106.166 68.0773 105.724 67.976C105.286 67.8693 104.926 67.728 104.644 67.552L105.252 66.176C105.518 66.3307 105.817 66.456 106.148 66.552C106.478 66.6427 106.796 66.688 107.1 66.688C107.361 66.688 107.548 66.664 107.66 66.616C107.772 66.5627 107.828 66.4853 107.828 66.384C107.828 66.2667 107.753 66.1787 107.604 66.12C107.46 66.0613 107.22 65.9973 106.884 65.928C106.452 65.8373 106.092 65.7413 105.804 65.64C105.516 65.5333 105.265 65.3627 105.052 65.128C104.838 64.888 104.732 64.5653 104.732 64.16C104.732 63.808 104.83 63.488 105.028 63.2C105.225 62.912 105.518 62.6853 105.908 62.52C106.302 62.3547 106.78 62.272 107.34 62.272C107.724 62.272 108.1 62.3147 108.468 62.4C108.841 62.48 109.169 62.6 109.452 62.76L108.884 64.128C108.334 63.8507 107.814 63.712 107.324 63.712C106.838 63.712 106.596 63.8293 106.596 64.064C106.596 64.176 106.668 64.2613 106.812 64.32C106.956 64.3733 107.193 64.432 107.524 64.496C107.95 64.576 108.31 64.6693 108.604 64.776C108.897 64.8773 109.15 65.0453 109.364 65.28C109.582 65.5147 109.692 65.8347 109.692 66.24C109.692 66.592 109.593 66.912 109.396 67.2C109.198 67.4827 108.902 67.7093 108.508 67.88C108.118 68.0453 107.644 68.128 107.084 68.128Z" fill="white"/>
<path d="M14.82 33.31C15.08 33.31 15.28 33.43 15.42 33.67C15.58 33.91 15.66 34.24 15.66 34.66C15.66 35.46 15.47 36.08 15.09 36.52C14.23 37.58 13.29 38.45 12.27 39.13C11.25 39.81 10.08 40.15 8.76 40.15C4.68 40.15 2.64 37.28 2.64 31.54C2.64 30.66 2.67 29.77 2.73 28.87H1.56C0.96 28.87 0.55 28.76 0.33 28.54C0.13 28.32 0.03 27.97 0.03 27.49C0.03 26.37 0.48 25.81 1.38 25.81H3.09C3.43 23.61 3.95 21.6 4.65 19.78C5.35 17.96 6.19 16.51 7.17 15.43C8.17 14.35 9.24 13.81 10.38 13.81C11.22 13.81 11.88 14.18 12.36 14.92C12.84 15.66 13.08 16.59 13.08 17.71C13.08 20.81 11.78 23.51 9.18 25.81H12.54C12.86 25.81 13.09 25.88 13.23 26.02C13.37 26.16 13.44 26.42 13.44 26.8C13.44 28.18 12.31 28.87 10.05 28.87H6.39C6.35 29.87 6.33 30.65 6.33 31.21C6.33 33.29 6.57 34.75 7.05 35.59C7.55 36.43 8.33 36.85 9.39 36.85C10.25 36.85 11.01 36.59 11.67 36.07C12.33 35.55 13.11 34.77 14.01 33.73C14.25 33.45 14.52 33.31 14.82 33.31ZM9.57 16.69C9.27 16.69 8.93 17.07 8.55 17.83C8.19 18.57 7.84 19.61 7.5 20.95C7.18 22.27 6.91 23.74 6.69 25.36C7.87 24.34 8.75 23.2 9.33 21.94C9.93 20.66 10.23 19.5 10.23 18.46C10.23 17.28 10.01 16.69 9.57 16.69ZM28.5173 30.79C28.7773 30.79 28.9773 30.92 29.1173 31.18C29.2573 31.44 29.3273 31.77 29.3273 32.17C29.3273 33.13 29.0373 33.7 28.4573 33.88C27.2573 34.3 25.9373 34.54 24.4973 34.6C24.1173 36.28 23.3673 37.63 22.2473 38.65C21.1273 39.65 19.8573 40.15 18.4373 40.15C17.2373 40.15 16.2073 39.86 15.3473 39.28C14.5073 38.7 13.8673 37.93 13.4273 36.97C12.9873 36.01 12.7673 34.97 12.7673 33.85C12.7673 32.33 13.0573 30.98 13.6373 29.8C14.2173 28.6 15.0173 27.67 16.0373 27.01C17.0573 26.33 18.1873 25.99 19.4273 25.99C20.9473 25.99 22.1673 26.52 23.0873 27.58C24.0273 28.62 24.5773 29.91 24.7373 31.45C25.6773 31.39 26.7973 31.19 28.0973 30.85C28.2573 30.81 28.3973 30.79 28.5173 30.79ZM18.6773 36.97C19.3173 36.97 19.8673 36.71 20.3273 36.19C20.8073 35.67 21.1273 34.92 21.2873 33.94C20.6673 33.52 20.1873 32.97 19.8473 32.29C19.5273 31.61 19.3673 30.89 19.3673 30.13C19.3673 29.81 19.3973 29.49 19.4573 29.17H19.3073C18.5073 29.17 17.8373 29.56 17.2973 30.34C16.7773 31.1 16.5173 32.18 16.5173 33.58C16.5173 34.68 16.7273 35.52 17.1473 36.1C17.5873 36.68 18.0973 36.97 18.6773 36.97ZM38.7225 31.6C39.2825 31.6 39.5625 32.02 39.5625 32.86C39.5625 34.44 38.3225 35.23 35.8425 35.23C35.3625 35.23 34.6725 35.14 33.7725 34.96C34.0325 36.2 34.2425 37.58 34.4025 39.1C34.5825 40.6 34.6725 41.84 34.6725 42.82C34.6725 44.98 34.3225 46.63 33.6225 47.77C32.9225 48.91 32.0025 49.48 30.8625 49.48C29.4225 49.48 28.3925 48.46 27.7725 46.42C27.1725 44.38 26.8725 41.3 26.8725 37.18C26.8725 33.34 27.2825 29.45 28.1025 25.51C28.9425 21.55 30.0825 18.28 31.5225 15.7C32.9825 13.1 34.5825 11.8 36.3225 11.8C37.2625 11.8 37.9925 12.22 38.5125 13.06C39.0525 13.9 39.3225 15.03 39.3225 16.45C39.3225 21.15 36.5125 26.27 30.8925 31.81C30.6925 33.77 30.5925 35.49 30.5925 36.97C30.5925 39.03 30.6625 41.14 30.8025 43.3C30.9425 45.48 31.1725 46.57 31.4925 46.57C32.0925 46.57 32.3925 45.53 32.3925 43.45C32.3925 41.89 32.2825 40.38 32.0625 38.92C31.8625 37.46 31.5825 35.92 31.2225 34.3C31.2025 34.04 31.2825 33.71 31.4625 33.31C31.6625 32.91 31.9025 32.56 32.1825 32.26C32.4625 31.96 32.7125 31.81 32.9325 31.81C33.3325 31.81 33.8125 31.83 34.3725 31.87C34.5525 31.89 34.7625 31.9 35.0025 31.9C35.8025 31.9 36.6925 31.83 37.6725 31.69C37.8325 31.67 38.0025 31.65 38.1825 31.63C38.3625 31.61 38.5425 31.6 38.7225 31.6ZM35.6925 14.77C35.3325 14.77 34.8825 15.38 34.3425 16.6C33.8225 17.82 33.3025 19.44 32.7825 21.46C32.2625 23.46 31.8125 25.58 31.4325 27.82C33.0325 26 34.2625 24.11 35.1225 22.15C35.9825 20.17 36.4225 18.32 36.4425 16.6C36.4425 15.38 36.1925 14.77 35.6925 14.77ZM49.2694 31.6C49.8294 31.6 50.1094 32.02 50.1094 32.86C50.1094 34.44 48.8694 35.23 46.3894 35.23C45.9094 35.23 45.2194 35.14 44.3194 34.96C44.5794 36.2 44.7894 37.58 44.9494 39.1C45.1294 40.6 45.2194 41.84 45.2194 42.82C45.2194 44.98 44.8694 46.63 44.1694 47.77C43.4694 48.91 42.5494 49.48 41.4094 49.48C39.9694 49.48 38.9394 48.46 38.3194 46.42C37.7194 44.38 37.4194 41.3 37.4194 37.18C37.4194 33.34 37.8294 29.45 38.6494 25.51C39.4894 21.55 40.6294 18.28 42.0694 15.7C43.5294 13.1 45.1294 11.8 46.8694 11.8C47.8094 11.8 48.5394 12.22 49.0594 13.06C49.5994 13.9 49.8694 15.03 49.8694 16.45C49.8694 21.15 47.0594 26.27 41.4394 31.81C41.2394 33.77 41.1394 35.49 41.1394 36.97C41.1394 39.03 41.2094 41.14 41.3494 43.3C41.4894 45.48 41.7194 46.57 42.0394 46.57C42.6394 46.57 42.9394 45.53 42.9394 43.45C42.9394 41.89 42.8294 40.38 42.6094 38.92C42.4094 37.46 42.1294 35.92 41.7694 34.3C41.7494 34.04 41.8294 33.71 42.0094 33.31C42.2094 32.91 42.4494 32.56 42.7294 32.26C43.0094 31.96 43.2594 31.81 43.4794 31.81C43.8794 31.81 44.3594 31.83 44.9194 31.87C45.0994 31.89 45.3094 31.9 45.5494 31.9C46.3494 31.9 47.2394 31.83 48.2194 31.69C48.3794 31.67 48.5494 31.65 48.7294 31.63C48.9094 31.61 49.0894 31.6 49.2694 31.6ZM46.2394 14.77C45.8794 14.77 45.4294 15.38 44.8894 16.6C44.3694 17.82 43.8494 19.44 43.3294 21.46C42.8094 23.46 42.3594 25.58 41.9794 27.82C43.5794 26 44.8094 24.11 45.6694 22.15C46.5294 20.17 46.9694 18.32 46.9894 16.6C46.9894 15.38 46.7394 14.77 46.2394 14.77ZM53.5763 40.15C51.6163 40.15 50.0863 39.6 48.9863 38.5C47.9063 37.38 47.3663 35.91 47.3663 34.09C47.3663 32.47 47.6863 31.05 48.3263 29.83C48.9663 28.61 49.7963 27.67 50.8162 27.01C51.8363 26.35 52.9063 26.02 54.0263 26.02C55.1263 26.02 55.9763 26.35 56.5763 27.01C57.1963 27.65 57.5063 28.48 57.5063 29.5C57.5063 30.34 57.3163 31.05 56.9363 31.63C56.5763 32.21 56.0963 32.5 55.4963 32.5C55.1163 32.5 54.8063 32.41 54.5663 32.23C54.3463 32.05 54.2363 31.8 54.2363 31.48C54.2363 31.34 54.2563 31.18 54.2963 31C54.3363 30.82 54.3663 30.69 54.3863 30.61C54.4863 30.31 54.5363 30.03 54.5363 29.77C54.5363 29.51 54.4663 29.31 54.3262 29.17C54.2063 29.03 54.0263 28.96 53.7863 28.96C53.3263 28.96 52.8963 29.17 52.4963 29.59C52.0963 29.99 51.7763 30.54 51.5363 31.24C51.2963 31.94 51.1763 32.71 51.1763 33.55C51.1763 35.87 52.1863 37.03 54.2063 37.03C55.0263 37.03 55.9063 36.76 56.8463 36.22C57.8063 35.66 58.7463 34.83 59.6663 33.73C59.9063 33.45 60.1763 33.31 60.4763 33.31C60.7363 33.31 60.9363 33.43 61.0763 33.67C61.2363 33.91 61.3163 34.24 61.3163 34.66C61.3163 35.42 61.1263 36.04 60.7463 36.52C59.8063 37.68 58.6763 38.58 57.3563 39.22C56.0563 39.84 54.7963 40.15 53.5763 40.15ZM74.1912 30.79C74.4512 30.79 74.6512 30.92 74.7912 31.18C74.9312 31.44 75.0012 31.77 75.0012 32.17C75.0012 33.13 74.7112 33.7 74.1312 33.88C72.9312 34.3 71.6112 34.54 70.1712 34.6C69.7912 36.28 69.0412 37.63 67.9212 38.65C66.8012 39.65 65.5312 40.15 64.1112 40.15C62.9112 40.15 61.8812 39.86 61.0212 39.28C60.1812 38.7 59.5412 37.93 59.1012 36.97C58.6612 36.01 58.4412 34.97 58.4412 33.85C58.4412 32.33 58.7312 30.98 59.3112 29.8C59.8912 28.6 60.6912 27.67 61.7112 27.01C62.7312 26.33 63.8612 25.99 65.1012 25.99C66.6212 25.99 67.8412 26.52 68.7612 27.58C69.7012 28.62 70.2512 29.91 70.4112 31.45C71.3512 31.39 72.4712 31.19 73.7712 30.85C73.9312 30.81 74.0712 30.79 74.1912 30.79ZM64.3512 36.97C64.9912 36.97 65.5412 36.71 66.0012 36.19C66.4812 35.67 66.8012 34.92 66.9612 33.94C66.3412 33.52 65.8612 32.97 65.5212 32.29C65.2012 31.61 65.0412 30.89 65.0412 30.13C65.0412 29.81 65.0712 29.49 65.1312 29.17H64.9812C64.1812 29.17 63.5112 29.56 62.9712 30.34C62.4512 31.1 62.1912 32.18 62.1912 33.58C62.1912 34.68 62.4012 35.52 62.8212 36.1C63.2612 36.68 63.7712 36.97 64.3512 36.97ZM87.5693 30.88C87.6293 30.86 87.7293 30.85 87.8693 30.85C88.1693 30.85 88.3993 30.95 88.5593 31.15C88.7193 31.35 88.7993 31.62 88.7993 31.96C88.7993 32.58 88.6793 33.07 88.4393 33.43C88.1993 33.77 87.8393 34.02 87.3593 34.18C86.4393 34.48 85.4593 34.63 84.4193 34.63C83.5393 34.63 82.7093 34.51 81.9293 34.27C81.3493 35.21 80.7093 36.18 80.0093 37.18C79.2093 38.32 78.5193 39.1 77.9393 39.52C77.3593 39.94 76.6993 40.15 75.9593 40.15C75.1393 40.15 74.4893 39.83 74.0093 39.19C73.5493 38.55 73.2593 37.54 73.1393 36.16C72.8993 33.36 72.7793 30.91 72.7793 28.81V27.76C72.7993 27.1 72.9793 26.64 73.3193 26.38C73.6593 26.12 74.1693 25.99 74.8493 25.99C75.3693 25.99 75.7493 26.11 75.9893 26.35C76.2493 26.57 76.3793 26.95 76.3793 27.49C76.3793 29.79 76.5193 32.78 76.7993 36.46C77.9993 34.68 78.8993 33.26 79.4993 32.2C79.1993 31.62 79.0493 30.93 79.0493 30.13C79.0493 29.45 79.1993 28.79 79.4993 28.15C79.7993 27.51 80.2093 26.99 80.7293 26.59C81.2493 26.19 81.8393 25.99 82.4993 25.99C83.0793 25.99 83.5493 26.2 83.9093 26.62C84.2693 27.02 84.4493 27.61 84.4493 28.39C84.4493 29.29 84.2093 30.32 83.7293 31.48C84.4893 31.44 85.4993 31.29 86.7593 31.03L87.5693 30.88ZM99.5759 33.31C99.8359 33.31 100.036 33.43 100.176 33.67C100.336 33.91 100.416 34.24 100.416 34.66C100.416 35.46 100.226 36.08 99.8459 36.52C99.1059 37.42 98.0559 38.25 96.6959 39.01C95.3559 39.77 93.9159 40.15 92.3759 40.15C90.2759 40.15 88.6459 39.58 87.4859 38.44C86.3259 37.3 85.7459 35.74 85.7459 33.76C85.7459 32.38 86.0359 31.1 86.6159 29.92C87.1959 28.72 87.9959 27.77 89.0159 27.07C90.0559 26.37 91.2259 26.02 92.5259 26.02C93.6859 26.02 94.6159 26.37 95.3159 27.07C96.0159 27.75 96.3659 28.68 96.3659 29.86C96.3659 31.24 95.8659 32.43 94.8659 33.43C93.8859 34.41 92.2159 35.19 89.8559 35.77C90.3559 36.69 91.3059 37.15 92.7059 37.15C93.6059 37.15 94.6259 36.84 95.7659 36.22C96.9259 35.58 97.9259 34.75 98.7659 33.73C99.0059 33.45 99.2759 33.31 99.5759 33.31ZM92.0159 28.96C91.2759 28.96 90.6459 29.39 90.1259 30.25C89.6259 31.11 89.3759 32.15 89.3759 33.37V33.43C90.5559 33.15 91.4859 32.73 92.1659 32.17C92.8459 31.61 93.1859 30.96 93.1859 30.22C93.1859 29.84 93.0759 29.54 92.8559 29.32C92.6559 29.08 92.3759 28.96 92.0159 28.96ZM100.103 40.15C99.3432 40.15 98.8032 39.75 98.4832 38.95C98.1832 38.15 98.0332 36.87 98.0332 35.11C98.0332 32.51 98.4032 30.04 99.1432 27.7C99.3232 27.12 99.6132 26.7 100.013 26.44C100.433 26.16 101.013 26.02 101.753 26.02C102.153 26.02 102.433 26.07 102.593 26.17C102.753 26.27 102.833 26.46 102.833 26.74C102.833 27.06 102.683 27.78 102.383 28.9C102.183 29.7 102.023 30.4 101.903 31C101.783 31.6 101.683 32.34 101.603 33.22C102.263 31.5 103.003 30.1 103.823 29.02C104.643 27.94 105.443 27.17 106.223 26.71C107.023 26.25 107.753 26.02 108.413 26.02C109.713 26.02 110.363 26.67 110.363 27.97C110.363 28.23 110.273 28.86 110.093 29.86C109.933 30.66 109.853 31.16 109.853 31.36C109.853 32.06 110.103 32.41 110.603 32.41C111.163 32.41 111.883 31.97 112.763 31.09C113.023 30.83 113.293 30.7 113.573 30.7C113.833 30.7 114.033 30.82 114.173 31.06C114.333 31.28 114.413 31.58 114.413 31.96C114.413 32.7 114.213 33.28 113.813 33.7C113.253 34.28 112.593 34.78 111.833 35.2C111.093 35.6 110.303 35.8 109.463 35.8C108.403 35.8 107.593 35.53 107.033 34.99C106.493 34.45 106.223 33.72 106.223 32.8C106.223 32.5 106.253 32.2 106.313 31.9C106.353 31.5 106.373 31.23 106.373 31.09C106.373 30.77 106.263 30.61 106.043 30.61C105.743 30.61 105.343 30.95 104.843 31.63C104.363 32.29 103.883 33.17 103.403 34.27C102.923 35.37 102.533 36.53 102.233 37.75C102.013 38.69 101.753 39.33 101.453 39.67C101.173 39.99 100.723 40.15 100.103 40.15Z" fill="white"/>
</svg>
